<svg width="184" height="29" fill="none" xmlns="http://www.w3.org/2000/svg"><g clip-path="url(#a)"><path d="M61.809 14.092c-.016 2.505-.812 4.483-2.506 6.224l-.025.028c-1.699 1.681-3.642 2.47-6.11 2.481-2.282-.012-4.16-.797-5.907-2.47-1.745-1.691-2.566-3.699-2.581-6.316.015-2.5.805-4.454 2.484-6.149 1.699-1.703 3.636-2.504 6.093-2.52 2.47.016 4.4.813 6.074 2.507 1.675 1.713 2.462 3.69 2.478 6.215Zm-1.283-7.444c-1.908-1.955-4.4-2.988-7.211-2.988h-.105c-2.818 0-5.327 1.043-7.252 3.014-1.968 1.943-3.002 4.487-2.99 7.355-.012 3.005 1.06 5.618 3.1 7.554 1.98 1.932 4.418 2.953 7.05 2.953h.1c2.838 0 5.362-1.042 7.299-3.012 1.977-1.994 3.015-4.56 3.003-7.42.012-2.897-1.012-5.465-2.963-7.428l-.032-.028" fill="#100F0D"/><path d="M65.67 14.133c-.012 3.44-1.21 6.288-3.663 8.705-1.231 1.196-2.597 2.102-4.059 2.692-1.485.602-3.066.898-4.832.906-3.102-.011-5.808-1.059-8.272-3.2-2.725-2.415-4.004-5.35-4.024-9.237.016-3.368 1.219-6.188 3.675-8.62 2.478-2.416 5.36-3.596 8.808-3.608 3.414.012 6.265 1.2 8.714 3.628 2.442 2.459 3.637 5.316 3.653 8.734Zm-2.438-9.94-.171.172.168-.176C60.545 1.49 57.13.06 53.356.06h-.093c-3.81 0-7.255 1.415-9.963 4.09-2.754 2.689-4.203 6.093-4.19 9.842-.017 4.253 1.575 7.894 4.602 10.528 2.746 2.407 5.897 3.628 9.367 3.628h.08c3.846 0 7.32-1.412 10.043-4.082 2.746-2.665 4.191-6.096 4.18-9.923.011-3.808-1.423-7.249-4.15-9.951M97.095 4.093v21.825h-2.129V4.093h-5.84V2.205h13.798v1.888h-5.829Zm-9.68-3.6v5.311h5.84v21.829h5.551V5.804h5.829V.494h-17.22M131.85 25.914V2.201h2.129v23.713h-2.129ZM130.139.49v27.139h5.551V.489h-5.551ZM148.128 4.094v21.829h-2.134V4.094h-5.844V2.206h13.807v1.888h-5.829Zm-9.685-3.6V5.81h5.841v21.829h5.551V5.808h5.829V.496h-17.221M37.055 8.894c.017 2.538-.892 4.675-2.626 6.179-1.55 1.358-3.585 2.11-6.067 2.232v-1.72c2.04-.119 3.648-.7 4.892-1.76l.05-.05c1.392-1.24 2.021-2.749 2.04-4.893-.014-1.968-.628-3.493-1.933-4.792a5.638 5.638 0 0 0-2.516-1.46c-.969-.27-2.557-.413-4.6-.413l-3.483-.005V25.93h2.128V4.036h2.12c2.038.005 3.488.37 4.569 1.147 1.12.787 1.739 2.12 1.714 3.665.022 1.55-.578 2.91-1.646 3.72-.853.652-1.927 1.02-3.335 1.147v-1.72c.988-.106 1.77-.374 2.285-.78l.01-.009c.675-.546.957-1.236.977-2.387-.025-1.079-.297-1.69-1.006-2.247-.71-.53-1.94-.816-3.558-.823l-.418.002v21.894H21.1V.502h5.195c2.249.005 3.852.153 5.044.469a7.297 7.297 0 0 1 3.267 1.9l-.162.18.167-.176c1.61 1.562 2.456 3.644 2.444 6.019M180.33.486l-7.164 12.423-.99-1.717 5.19-8.994h-2.435l-3.962 6.905-.989-1.715 3.962-6.902h6.388ZM163.085 2.197l7.369 12.861v10.856h-2.13l.004-10.357-7.677-13.36h2.434Zm.996-1.711h-6.386l8.919 15.532v11.61h5.554V14.616L164.081.485M4.139 19.981l.087.416c.2.953.473 1.625.88 2.174.865 1.238 2.382 1.979 4.058 1.983a.893.893 0 0 0 .072-.004h.053c1.377 0 2.638-.516 3.548-1.452.938-.942 1.448-2.24 1.435-3.652 0-.601-.084-1.154-.25-1.642a4.238 4.238 0 0 0-.797-1.416c-.35-.416-.78-.79-1.317-1.142a11.787 11.787 0 0 0-1.777-.934l-2.459-1.025c-3.256-1.437-4.662-3.133-4.7-5.667.019-1.72.605-3.005 1.897-4.166 1.346-1.179 2.903-1.731 4.895-1.739 2.288.031 4.006.904 5.408 2.746l.289.378-1.64.965-.224-.307c-.41-.554-.81-.942-1.261-1.22l-.115-.072c-.669-.396-1.466-.585-2.51-.593-1.243 0-2.345.384-3.18 1.106A3.742 3.742 0 0 0 5.17 7.612c-.004.824.33 1.652.914 2.271.563.61 1.32 1.099 2.384 1.541l2.54 1.043c1.919.777 3.323 1.72 4.175 2.803.836 1.06 1.244 2.337 1.247 3.9-.01 2.154-.67 3.807-2.076 5.205-1.445 1.398-3.114 2.056-5.25 2.072-2.04-.012-3.598-.566-4.902-1.742-1.037-.963-1.74-2.213-2.148-3.822l-.107-.42 2.192-.482Zm12.39-5.774c-1.055-1.33-2.651-2.42-4.879-3.333L9.12 9.84c-.79-.326-1.403-.71-1.769-1.106-.331-.382-.454-.669-.468-1.088v-.04c.026-.695.214-1.09.74-1.562.578-.49 1.23-.711 2.108-.719.709 0 1.273.132 1.675.392l.025.014c.278.136.822.717 1.361 1.673l.429.75 4.596-2.724-.425-.733C15.682 1.67 13.013.003 9.897.003h-.003A.908.908 0 0 0 9.78 0l-.036.001c-2.341 0-4.417.748-5.998 2.16C2.125 3.565 1.242 5.498 1.258 7.6c-.033 3.16 2.006 5.74 5.74 7.262l2.46 1.024c.593.26 1.102.528 1.512.798.399.262.717.533.945.805.219.263.377.543.483.854.111.341.165.7.165 1.096-.015 1.043-.296 1.775-.933 2.442-.67.656-1.381.942-2.369.957-1.317-.027-2.092-.384-2.773-1.282-.333-.395-.647-1.488-.782-2.72l-.107-.936L0 19.133l.118.79c.374 2.564 1.357 4.596 2.921 6.04C4.605 27.4 6.696 28.16 9.095 28.16h.053c2.497 0 4.71-.884 6.399-2.556 1.711-1.661 2.609-3.883 2.597-6.423.008-1.923-.55-3.644-1.615-4.974M111.545 6.697c-1.929 1.987-2.949 4.557-2.949 7.432v.031c-.012 2.857 1.008 5.408 2.95 7.374 1.914 1.976 4.398 3.02 7.185 3.02h.076c1.491 0 2.733-.243 3.782-.738.491-.2 1.007-.473 1.576-.833l.646-.41v2.354l-.228.117c-1.885.944-3.795 1.403-5.839 1.403-3.434-.012-6.287-1.178-8.718-3.562-2.4-2.428-3.572-5.263-3.584-8.667.012-3.055.987-5.706 2.98-8.104l.044-.041c2.52-2.95 5.562-4.334 9.571-4.354 1.922 0 3.737.45 5.547 1.377l.227.118V5.52l-.633-.37c-1.75-1.02-3.564-1.538-5.39-1.538h-.061c-2.795 0-5.278 1.067-7.182 3.085Zm7.227-1.372a8.621 8.621 0 0 1 3.2.638c1.048.43 2.107 1.087 3.147 1.95l1.405 1.18V2.217l-.427-.247C123.841.664 121.469.002 119.049.002h-.081c-4.345 0-8.086 1.72-10.822 4.975-2.276 2.69-3.426 5.798-3.417 9.236-.013 3.792 1.401 7.21 4.088 9.884 2.677 2.66 6.091 4.067 9.873 4.067h.065c2.554 0 5.023-.667 7.337-1.984l.432-.247v-6.988l-1.406 1.192c-.559.473-1.135.91-1.711 1.294a9.456 9.456 0 0 1-1.506.82c-.858.394-1.875.586-3.109.586-2.426-.012-4.339-.805-6.016-2.494-1.668-1.72-2.451-3.683-2.463-6.177.012-2.53.795-4.524 2.464-6.275 1.667-1.735 3.572-2.55 5.995-2.566M80.34 16.326l.452-.207a7.533 7.533 0 0 0 2.855-2.232c1.142-1.427 1.743-3.22 1.738-5.183.017-2.486-.966-4.697-2.769-6.226C80.908 1.055 78.42.388 74.787.38h-5.353v27.138h5.579V5.719h.525c1.513 0 2.726.286 3.412.804.68.533.942 1.134.964 2.208-.019 1.167-.31 1.874-1.006 2.438-.348.275-.821.49-1.403.637a7.193 7.193 0 0 1-.752.142v1.758c1.34-.146 2.378-.52 3.204-1.149 1.1-.82 1.717-2.207 1.697-3.804v-.086c0-1.488-.608-2.779-1.668-3.543-1.068-.776-2.493-1.14-4.484-1.149h-2.228v21.803h-2.101V2.124h3.74c3.034 0 5.309.583 6.577 1.685 1.468 1.287 2.132 2.793 2.156 4.884-.008 1.635-.439 2.938-1.356 4.102-.925 1.155-2.06 1.848-3.568 2.18l-1.311.278 7.628 10.525h-2.517l-5.769-8.289v3.047l4.861 6.982h6.844L80.34 16.326" fill="#100F0D"/><path d="M180.962 25.922a1.321 1.321 0 1 1 0-2.643 1.321 1.321 0 0 1 0 2.643Zm0-4.358a3.036 3.036 0 0 0 0 6.074 3.038 3.038 0 0 0 0-6.074Z" fill="#FAB30B"/></g><defs><clipPath id="a"><path fill="#fff" d="M0 0h184v28.189H0z"/></clipPath></defs></svg>